Coordinates
version=1
nRows=8
nColumns=36
inDegrees=yes

Units are S.I. units (second, meters, Newtons, ...)
If the header above contains a line with 'inDegrees', this indicates whether rotational values are in degrees (yes) or radians (no).

endheader
time	pelvis_tilt	pelvis_list	pelvis_rotation	pelvis_tx	pelvis_ty	pelvis_tz	hip_flexion_r	hip_adduction_r	hip_rotation_r	knee_angle_r	knee_angle_r_beta	ankle_angle_r	subtalar_angle_r	mtp_angle_r	hip_flexion_l	hip_adduction_l	hip_rotation_l	knee_angle_l	knee_angle_l_beta	ankle_angle_l	subtalar_angle_l	mtp_angle_l	lumbar_extension	lumbar_bending	lumbar_rotation	arm_flex_r	arm_add_r	arm_rot_r	elbow_flex_r	pro_sup_r	arm_flex_l	arm_add_l	arm_rot_l	elbow_flex_l	pro_sup_l
      0.00000000	     -3.30223801	     -1.45393464	      9.43457935	     -0.00504044	      0.92961937	     -0.14127149	     27.26728023	      2.66291181	     -5.99280212	      4.80135262	      0.08379941	     -6.66506230	    -12.91449637	     -5.58652130	    -11.67562711	      0.38971076	     -5.94162697	     15.00123226	      0.26182089	     16.30975741	      2.05799472	     -5.58652130	      0.34798808	     -2.92506757	    -13.59189008	     -0.28430398	     -5.78191806	    -22.16382619	     34.47212997	    102.11102339	     23.21020136	    -12.28507550	     -9.32351442	     56.51199905	    103.61897316
      0.01000000	     -2.84983177	     -2.09472207	      9.59043606	      0.00884079	      0.93102626	     -0.14108630	     26.63574909	      3.37714615	     -6.58691956	      5.90658718	      0.10308939	     -7.02684578	    -13.60397027	     -5.60730558	    -11.59331341	     -0.76999094	     -5.91830385	     17.31816193	      0.30225895	     15.01273357	      1.39216048	     -5.60730558	      0.05553708	     -2.04746720	    -13.46627902	     -0.18023723	     -5.93126960	    -22.28241184	     34.48282103	    102.17376897	     22.73864477	    -11.83791283	     -9.31093894	     56.74501091	    103.72637800
      0.02000000	     -2.47621780	     -2.73892619	      9.74810109	      0.02274382	      0.93232853	     -0.14091129	     26.07855186	      4.09492713	     -7.17892514	      6.97961431	      0.12181725	     -7.64092405	    -14.45524325	     -5.63254503	    -11.35341325	     -1.91700791	     -5.76817222	     19.72018492	      0.34418216	     13.36500624	      0.48448879	     -5.63254503	     -0.13030977	     -1.14611321	    -13.41170856	     -0.05255209	     -6.04941073	    -22.43868197	     34.57035106	    102.24745953	     22.08616924	    -11.39648901	     -9.37184924	     57.02708178	    103.84515278
      0.03000000	     -2.23131162	     -3.23692488	      9.86384878	      0.03647434	      0.93351345	     -0.14068605	     25.59132272	      4.71534668	     -7.19287797	      7.92781411	      0.13836646	     -8.76550874	    -16.03126285	     -5.70918405	    -10.92453041	     -2.78319043	     -5.09619843	     22.14181044	      0.38644749	     11.06515343	     -1.29137159	     -5.70918405	     -0.17974866	     -0.44256526	    -13.39044304	      0.14806072	     -6.10018365	    -22.67878599	     34.62725457	    102.46702764	     21.27147699	    -10.98046302	     -9.65147631	     57.45882822	    104.13353326
      0.04000000	     -1.79438329	     -3.76288544	      9.95123787	      0.05030348	      0.93492118	     -0.14023213	     24.84812104	      5.44443749	     -7.45082637	      8.81151748	      0.15378999	     -8.82814938	    -16.73534153	     -5.73450568	    -10.45649152	     -3.91434231	     -5.20195270	     24.96339023	      0.43569335	      9.06114955	     -1.76319762	     -5.73450568	     -0.45043991	      0.29200591	    -13.11487322	      0.26630591	     -6.18113938	    -22.70036133	     34.66274265	    102.53447122	     20.67322688	    -10.61462817	     -9.42126768	     57.54096143	    104.24121964
      0.05000000	     -1.52787045	     -4.12236984	      9.99544753	      0.06377036	      0.93614857	     -0.13965488	     24.26193097	      6.03877046	     -7.24175263	      9.68543537	      0.16904274	     -9.24611077	    -17.98325453	     -5.81490302	     -9.62611901	     -4.75886966	     -4.85569077	     27.97761007	      0.48830141	      6.32920837	     -3.08025649	     -5.81490302	     -0.60541575	      0.79703886	    -12.76328103	      0.42222518	     -6.18676236	    -22.80738284	     34.72175347	    102.72233764	     20.00093624	    -10.27876622	     -9.16683237	     57.59617843	    104.49694924
      0.06000000	     -1.09358640	     -4.50027236	     10.01054053	      0.07715726	      0.93754547	     -0.13888838	     23.43174043	      6.71779089	     -7.24685750	     10.44018680	      0.18221563	     -8.85127928	    -18.56641326	     -5.83340615	     -8.74181666	     -5.82521040	     -5.01052868	     31.32338539	      0.54669621	      3.91755197	     -3.25333743	     -5.83340615	     -0.98100825	      1.33369786	    -12.28370293	      0.63066030	     -6.19069432	    -22.76499495	     34.76418219	    102.76713321	     19.38405012	     -9.92838315	     -8.81031641	     57.59365212	    104.57491104
      0.07000000	     -0.97507166	     -4.78257403	      9.94835200	      0.09015201	      0.93847807	     -0.13797615	     22.99690820	      7.27874991	     -7.01117347	     11.33861566	      0.19789618	     -8.61764036	    -19.44986603	     -5.89600447	     -7.34255402	     -6.60443366	     -4.69757399	     34.81193171	      0.60758283	      0.52651856	     -4.67168541	     -5.89600447	     -1.01143826	      1.69994954	    -11.70318872	      0.76774920	     -6.15509913	    -22.72548753	     34.84373593	    102.90009487	     18.71777369	     -9.72022300	     -8.21586798	     57.36706580	    104.74892760
